<svg clip-rule="evenodd" fill-rule="evenodd" height="16" stroke-linejoin="round" stroke-miterlimit="2" width="16" xmlns="http://www.w3.org/2000/svg"><path d="m0 0h16v16h-16z" fill="none"/><path d="m8 0c4.415 0 8 3.585 8 8s-3.585 8-8 8-8-3.585-8-8 3.585-8 8-8zm2.531 8.656c.431 0 .782.525.782 1.172s-.351 1.172-.782 1.172-.781-.525-.781-1.172.35-1.172.781-1.172zm-5.062 0c.431 0 .781.525.781 1.172s-.35 1.172-.781 1.172-.781-.525-.781-1.172.35-1.172.781-1.172zm-1.369-3.256c.841-1.258 2.275-2.087 3.9-2.087s3.059.829 3.9 2.087l-.65.434c-.701-1.049-1.895-1.74-3.25-1.74s-2.549.691-3.25 1.74z"/></svg>